
<svg width="1440" height="120" xmlns="http://www.w3.org/2000/svg">
  <g fill="#FFFFFF" fill-rule="evenodd">
    <!-- Burj Khalifa -->
    <path d="M720 10v110h-12V50h-8v70h-8V60h-8v60h-12V10h48z" opacity="0.8"/>
    
    <!-- Dubai Frame -->
    <path d="M600 50h60v70h-60V50zm8 8h44v54h-44V58z" opacity="0.6"/>
    
    <!-- Burj Al Arab -->
    <path d="M480 40c0 0 20-30 40 0v80h-40V40z" opacity="0.7"/>
    
    <!-- Emirates Towers -->
    <path d="M840 40l20-20 20 20v80h-40V40z" opacity="0.7"/>
    <path d="M860 30l15-15 15 15v90h-30V30z" opacity="0.5"/>
    
    <!-- Marina Buildings -->
    <rect x="300" y="60" width="20" height="60" opacity="0.6"/>
    <rect x="330" y="40" width="20" height="80" opacity="0.7"/>
    <rect x="360" y="50" width="20" height="70" opacity="0.5"/>
    <rect x="390" y="30" width="20" height="90" opacity="0.8"/>
    <rect x="420" y="70" width="20" height="50" opacity="0.6"/>
    
    <!-- Downtown Buildings -->
    <rect x="920" y="50" width="25" height="70" opacity="0.7"/>
    <rect x="955" y="40" width="25" height="80" opacity="0.6"/>
    <rect x="990" y="60" width="25" height="60" opacity="0.8"/>
    <rect x="1025" y="70" width="25" height="50" opacity="0.5"/>
    <rect x="1060" y="45" width="25" height="75" opacity="0.7"/>
    
    <!-- Base Buildings -->
    <rect x="100" y="80" width="1240" height="40" opacity="0.3"/>
  </g>
</svg>
