
<svg width="1440" height="120" xmlns="http://www.w3.org/2000/svg">
  <!-- Dubai skyline SVG with building silhouettes -->
  <path d="M0,120 L70,120 L70,80 L90,80 L90,60 L110,60 L110,80 L130,80 L130,50 L150,50 L150,70 L170,70 L170,40 L190,40 L190,70 L210,70 L210,55 L230,55 L230,80 L250,80 L250,60 L270,60 L270,30 L290,30 L290,80 L310,80 L310,60 L330,60 L330,75 L350,75 L350,50 L370,50 L370,80 L390,80 L390,40 L410,40 L410,70 L430,70 L430,65 L450,65 L450,20 L470,20 L470,65 L490,65 L490,50 L510,50 L510,90 L530,90 L530,70 L550,70 L550,40 L570,40 L570,60 L590,60 L590,80 L610,80 L610,60 L630,60 L630,75 L650,75 L650,40 L670,40 L670,65 L690,65 L690,30 L710,30 L710,65 L730,65 L730,20 L750,20 L750,65 L770,65 L770,40 L790,40 L790,60 L810,60 L810,80 L830,80 L830,60 L850,60 L850,40 L870,40 L870,70 L890,70 L890,50 L910,50 L910,80 L930,80 L930,60 L950,60 L950,70 L970,70 L970,85 L990,85 L990,55 L1010,55 L1010,70 L1030,70 L1030,50 L1050,50 L1050,80 L1070,80 L1070,60 L1090,60 L1090,40 L1110,40 L1110,75 L1130,75 L1130,50 L1150,50 L1150,70 L1170,70 L1170,55 L1190,55 L1190,80 L1210,80 L1210,60 L1230,60 L1230,70 L1250,70 L1250,55 L1270,55 L1270,80 L1290,80 L1290,60 L1310,60 L1310,40 L1330,40 L1330,70 L1350,70 L1350,85 L1370,85 L1370,60 L1390,60 L1390,80 L1410,80 L1410,60 L1430,60 L1430,120 L0,120 Z" fill="#000" opacity="0.8"/>
</svg>
