<svg width="1342" height="1537" viewBox="0 0 1342 1537" fill="none" xmlns="http://www.w3.org/2000/svg">
<path d="M0 0H478.834C481.741 0.15635 484.638 0.43226 487.535 0.459852C497.633 0.564085 507.734 0.613135 517.839 0.607004C552.282 0.634595 586.752 0.367881 621.204 0.772551C638.624 0.974885 656.153 1.15883 673.388 3.53166C697.954 6.87018 722.234 12.3148 746.679 16.6282C812.659 28.2717 874.757 51.0987 933.857 82.2123C953.714 92.6785 973.166 104.055 992.084 116.14C1012.32 129.062 1032.06 142.857 1051.39 157.14C1064.06 166.512 1075.4 177.659 1087.68 187.583C1120.47 214.098 1149.3 244.31 1175.05 277.778C1209.79 322.899 1241.4 369.803 1265.01 421.813C1283.85 463.273 1300.99 505.414 1313.34 549.274C1318.74 568.468 1322.07 588.27 1326.16 607.832C1328.78 620.349 1331.62 632.866 1333.38 645.54C1335.75 662.582 1337.18 679.753 1339.02 696.868C1339.94 705.192 1341.54 713.497 1341.63 721.829C1342.14 769.313 1343.02 816.862 1337.14 864.116C1334.05 888.948 1330.53 913.909 1325.34 938.41C1320.48 961.347 1313.27 983.779 1306.94 1006.39C1297.27 1040.88 1286.43 1074.95 1269.41 1106.7C1268.08 1109.2 1266.76 1111.71 1265.59 1114.28C1260.23 1125.98 1255.69 1138.12 1249.44 1149.31C1240.61 1165.12 1230.62 1180.28 1220.93 1195.62C1212.38 1209.21 1204.45 1223.3 1194.72 1236C1179.21 1256.29 1162.9 1276.02 1146.03 1295.22C1132.9 1310.15 1118.74 1324.24 1104.41 1338.07C1094.5 1347.6 1083.62 1356.15 1073.02 1364.94C1061.38 1374.58 1049.93 1384.48 1037.74 1393.37C1021.58 1405.14 1005.06 1416.43 988.203 1427.23C944.432 1455.12 897.338 1477.42 848.022 1493.6C810.562 1506.01 772.937 1517.83 733.978 1524.55C681.289 1533.62 627.992 1535.77 574.75 1536.35C488.068 1537.27 401.368 1536.61 314.676 1536.61H309.158V1234.58H0.24832V1212.35C0.24832 809.921 0.24832 407.493 0.24832 5.06756C0.239123 3.35692 0.0827733 1.67386 0 0ZM310.014 320.471C311.899 320.342 313.095 320.195 314.29 320.204C419.661 321.013 525.049 318.273 630.392 322.108C644.289 322.614 658.37 323.027 671.963 325.538C695.755 329.999 719.511 335.167 742.78 341.798C765.313 348.236 787.956 355.024 808.355 367.155C818.048 372.921 827.19 379.635 836.939 385.319C870.968 405.157 900.849 429.943 925.552 460.606C946.135 486.164 963.021 514.16 976.909 543.949C987.117 565.857 996.581 588.04 1003.87 611.088C1009.88 630.153 1013.22 649.715 1016.68 669.369C1021.82 698.57 1023.3 727.917 1023.79 757.44C1024.23 784.737 1023.28 811.923 1019.25 838.981C1017.33 851.903 1016.49 864.99 1014.35 877.884C1009.13 910.074 997.896 940.636 986.391 970.977C978.435 991.955 969.11 1012.46 956.703 1031.24C945.4 1048.33 934.023 1065.51 921.055 1081.32C910.276 1094.47 897.272 1105.81 884.984 1117.68C878.638 1123.8 872.109 1129.96 864.953 1135.01C848.895 1146.27 832.957 1157.92 815.859 1167.43C796.15 1178.41 775.503 1187.81 754.773 1196.76C743.654 1201.57 731.431 1203.77 719.824 1207.61C708.217 1211.44 696.261 1212.6 684.811 1216.56C678.465 1218.74 671.687 1219.68 665.111 1221.26C633.721 1228.8 601.826 1232.3 569.618 1232.82C525.822 1233.58 482.026 1234.02 438.229 1234.66C435.553 1234.66 432.877 1234.89 430.439 1235V1400.09C437.797 1400.09 444.833 1400.09 451.859 1400.09C477.133 1400.19 502.443 1400.69 527.68 1400.36C573.113 1399.77 618.638 1402.8 663.952 1396.79C681.684 1394.44 699.6 1393.3 717.203 1390.25C732.507 1387.59 747.47 1382.96 762.609 1379.3C804.336 1369.18 845.023 1356.4 883.605 1337.09C932.643 1312.56 978.527 1283.51 1019.07 1246.39C1049.66 1218.38 1077.57 1187.83 1101.57 1154.01C1126.4 1118.98 1150.79 1083.73 1167.05 1043.36C1196.39 970.48 1217.57 895.846 1221.45 816.926C1223.29 780.23 1224.82 743.525 1221.53 706.829C1220.34 693.649 1219.84 680.332 1217.47 667.355C1212.73 641.419 1208.01 615.392 1201.23 589.944C1195.34 567.797 1187.12 546.221 1179.02 524.737C1171.53 504.834 1163.79 484.913 1154.46 465.876C1138.64 433.539 1117.42 404.43 1097.28 374.705C1083.35 354.15 1066.01 336.722 1047.76 320.103C1038.4 311.586 1029.88 302.104 1020.28 293.891C985.821 264.396 950.265 236.474 909.862 215.201C878.712 198.803 847.322 182.717 813.799 172.178C782.143 162.226 749.42 155.329 716.973 148.265C698.643 144.274 679.835 142.352 661.175 139.988C650.697 138.664 640.152 137.936 629.592 137.808C594.643 137.44 559.759 137.385 524.838 137.376C394.332 137.315 263.826 137.287 133.32 137.293H116.931V1098.38H310.014V320.471ZM429.768 1096.15C430.789 1096.19 431.837 1096.3 432.895 1096.29L611.603 1095.28C640.233 1095.13 668.063 1090.54 695.737 1082.9C767.051 1063.22 819.722 1020.36 855.453 956.298C864.65 939.863 871.796 922.186 878.602 904.574C893.657 865.606 896.545 824.256 900.73 783.228C903.719 753.89 900.224 724.745 896.628 695.746C894.66 679.909 890.641 664.292 886.999 648.703C882.133 627.937 876.624 607.124 866.351 588.398C850.339 559.226 830.483 532.83 804.731 511.189C786.034 495.462 766.416 481.198 743.792 471.799C726.207 464.487 708.374 457.773 689.685 453.487C666.849 448.254 643.903 444.171 620.413 444.125C558.229 443.99 496.048 443.916 433.87 443.904C432.684 443.904 431.506 444.042 429.722 444.143L429.768 1096.15Z" fill="#47143D"/>
</svg>
